<svg xmlns="http://www.w3.org/2000/svg" style="display: none;">
  <symbol id="inicio" viewBox="0 0 24 24">
    <circle cx="12" cy="12" r="10" fill="green" />
  </symbol>
  <symbol id="fim" viewBox="0 0 24 24">
    <path d="M12 2 L22 22 H2 Z" fill="red" />
  </symbol>
  <symbol id="ponto" viewBox="0 0 24 24">
    <circle cx="12" cy="12" r="5" fill="blue" />
  </symbol>
  <symbol id="training" viewBox="0 0 326.414 326.414">
        <circle style="fill:#010002;" cx="175.972" cy="29.614" r="29.614"/>
        <path style="fill:010002;" d="M266.692,304.454l-5.848-14.237l2.59-1.08l-1.044-3.061
            c-11.319-33.224-22.961-72.497-30.616-99.169c2.094,3.878,4.29,7.703,6.623,11.438c2.667,4.266,7.118-3.562,5.006-6.928
            c-3.455-5.525-6.605-11.224-9.428-17.083c0.364,0.089,0.722,0.179,1.092,0.263c3.717,0.859,5.8,2.864,7.429,6.325
            c0.603,1.271,1.349,1.844,2.751,1.874c2.035,0.054,4.38-0.573,5.501-2.47c0.585-0.973,1.122-1.892,1.384-3.007
            c0.09-0.334,0.149-0.668,0.191-1.008c0.042-0.227,0.084-0.388,0.125-0.525c1.193-1.551,1.623-3.789,0.907-5.615
            c-0.746-1.903-2.858-2.488-4.404-1.056c-1.038,0.955-1.79,2.07-2.267,3.359c-1.581-2.518-3.592-4.642-6.504-5.842
            c-3.306-1.36-6.916-1.462-10.03-3.335c-0.835-0.501-1.617-0.513-2.333-0.245c-0.764-0.072-1.569,0.394-2.273,1.122
            c-0.704-6.486-1.438-12.972-2.226-19.446c10.818-6.361,21.397-13.801,32.251-22.68c4.201-3.431,6.617-8.688,6.832-14.798
            c0.233-6.695-2.261-13.151-6.653-17.268c-16.862-15.818-37.024-20.717-58.368-25.914l-1.462-0.358
            c-0.609-0.209-1.253-0.316-1.921-0.316c-5.227,0-11.612,7.685-15.794,13.7c-3.628-5.388-8.551-11.206-12.865-11.206
            c-0.973,0-1.921,0.257-2.751,0.752c-3.443,2.082-6.391,1.187-8.789,4.171L89.089,44.895V57.24l-15.46-5.895
            c-6.784-1.414-13.425,2.93-14.834,9.708c-1.42,6.772,2.924,13.425,9.708,14.834l20.586,7.184v11.922l61.304,24.184
            c2.572,17.584,4.911,36.052,6.975,54.985c-20.323,5.167-40.3,13.455-59.412,24.661c-5.728,3.353-9.243,8.419-9.929,14.32
            c-0.686,1.76-1.158,3.634-1.384,5.567l-8.377,68.673l5.639,1.068l-2.476,14.529c-1.48,8.664,4.344,16.88,13.008,18.36
            c8.664,1.474,16.892-4.35,18.366-13.02l2.381-13.951l5.728,1.092l7.852-64.227c18.617-9.714,48.421-22.131,54.901-24.798
            c3.013,0.471,6.134,0.561,9.278,0.269l34.715,97.373l3.813-1.593l5.782,14.064c3.341,8.127,12.638,12.011,20.765,8.664
            C266.149,321.883,270.028,312.586,266.692,304.454z M156.795,115.226l-0.436-2.948L95.998,88.095V57.002l61.304,24.184l1.032-1.45
            c1.874-2.643,4.29-4.917,7.178-6.772c1.981,1.152,6.349,6.689,9.636,12.28l2.888,4.935l3.019-4.857
            c4.6-7.399,10.645-14.428,12.817-14.977l1.868,0.453c20.437,4.97,39.739,9.666,55.283,24.237
            c2.912,2.733,4.624,7.327,4.475,11.987c-0.143,4.099-1.665,7.542-4.302,9.69c-9.875,8.079-19.518,14.863-29.309,20.771
            l-7.363-31.183l-6.731,1.593l0.973,4.117l-18.879,7.691c-6.408,2.613-9.493,9.929-6.88,16.343
            c2.613,6.408,9.923,9.487,16.343,6.874l15.562-4.899l1.289,5.472c0.877,7.232,1.707,14.464,2.494,21.707h-55.396
            C161.341,148.008,159.163,131.229,156.795,115.226z M197.536,199.031l-2.858,0.489c-3.622,0.621-7.333,0.603-10.776-0.048
            l-1.008-0.191l-0.943,0.388c-3.855,1.581-38.17,15.747-58.028,26.302l-1.587,0.847l-7.393,60.486l-29.041-5.501l7.584-62.246
            c0.185-1.504,0.549-2.876,1.116-4.219l0.251-1.044c0.34-3.89,2.619-7.178,6.587-9.511c19.464-11.397,39.817-19.679,60.492-24.625
            l2.954-0.704l-0.322-3.019c-0.03-0.274-0.066-0.543-0.095-0.817h56.9c6.999,24.774,20.335,70.815,33.438,109.623l-23.08,9.648
            C231.727,294.889,197.536,199.031,197.536,199.031z"/>
</symbol>
  <symbol id="seminar" viewBox="0 0 24 24">
    <path d="M115.257,48.071c-0.459,0.115-28.878,7.401-36.49,33.641c-6.34,21.851-50.968,171.838-72.981,245.814
			c-6.024,20.243,5.278,42.237,25.254,49.112l5.24,1.817c19.976,6.875,41.023-3.979,47.009-24.231l41.654-140.942l-0.574,95.989
			h31.9l48.683-142.089L159.12,35.62L115.257,48.071z"/>
		<polygon points="233.22,84.667 262.213,0 204.007,0 		"/>
		<path d="M348.467,436.997l-5.843-83.442h-43.672c0,0,6.321,6.502,14.114,14.506c7.794,8.023,7.344,20.941-0.994,28.869
			c-8.358,7.918-23.983,5.049-34.913-6.416l-30.944-32.455l-26.669-0.153l-31.078,32.599c-10.94,11.465-26.565,14.334-34.903,6.416
			c-8.348-7.917-8.797-20.846-0.995-28.869l14.114-14.506h-43.672l-5.852,83.442c-1.109,15.797,10.834,28.61,26.679,28.61h177.958
			C337.623,465.617,349.576,452.804,348.467,436.997z"/>
		<path d="M429.327,378.436l5.23-1.816c19.977-6.876,31.279-28.869,25.255-49.123C437.8,253.53,393.181,103.543,386.841,81.692
			c-7.669-26.374-36.021-33.526-36.309-33.593l-44.37-12.613l-93.31,271.805h128.94l-1.435-94.162l41.913,141.075
			C388.285,374.477,409.352,385.312,429.327,378.436z"/>
		<path d="M172.9,28.066c2.591,7.43,10.289,29.548,18.857,54.143l21.314,61.209l11.953-34.903L190.285,7.688
			C184.48,14.478,176.515,23.83,172.9,28.066z"/>
		<path d="M172.642,309.251h22.51l97.097-280.965L275.18,9.945C261.324,50.385,196.978,238.211,172.642,309.251z"/>
		<polygon points="341.63,324.752 270.925,324.752 283.882,338.072 341.63,338.072 		"/>
		<polygon points="123.988,324.752 123.988,338.072 181.735,338.072 194.693,324.752 		"/>
		<path d="M164.303,385.761c2.113,1.999,6.77,0.526,10.414-3.299l35.333-37.045v-14.249l-42.897,44.112
			C163.471,379.067,162.199,383.762,164.303,385.761z"/>
		<path d="M255.548,345.397c9.878,10.366,25.255,26.498,35.334,37.064c3.643,3.825,8.31,5.298,10.423,3.299
			c2.104-1.999,0.832-6.693-2.85-10.48l-42.897-44.121L255.548,345.397z"/>
		<polygon points="240.066,342.528 240.066,321.022 225.551,321.022 225.551,342.452 		"/>
  </symbol>
</svg>